<svg width="32" height="33" viewBox="0 0 32 33" fill="none" xmlns="http://www.w3.org/2000/svg">
<path d="M3.33333 4.5184C3.33333 4.25341 3.22798 3.99928 3.04044 3.8119C2.8529 3.62453 2.59855 3.51926 2.33333 3.51926C2.06812 3.51926 1.81376 3.62453 1.62623 3.8119C1.43869 3.99928 1.33333 4.25341 1.33333 4.5184V29.1636C1.33333 29.7152 1.78133 30.1628 2.33333 30.1628H26.6667C26.9319 30.1628 27.1862 30.0575 27.3738 29.8701C27.5613 29.6828 27.6667 29.4286 27.6667 29.1636C27.6667 28.8986 27.5613 28.6445 27.3738 28.4571C27.1862 28.2698 26.9319 28.1645 26.6667 28.1645H3.33333V4.5184Z" fill="white"/>
<path d="M29.7067 11.2192C29.8833 11.0298 29.9795 10.7793 29.9749 10.5205C29.9703 10.2616 29.8654 10.0147 29.6822 9.83161C29.4989 9.64855 29.2518 9.54369 28.9927 9.53913C28.7336 9.53456 28.4829 9.63064 28.2933 9.80713L20.6667 17.4272L15.7067 12.4715C15.5192 12.2844 15.265 12.1793 15 12.1793C14.735 12.1793 14.4808 12.2844 14.2933 12.4715L6.29333 20.4645C6.19508 20.556 6.11628 20.6663 6.06163 20.7889C6.00697 20.9114 5.97758 21.0437 5.97521 21.1779C5.97284 21.312 5.99754 21.4453 6.04784 21.5697C6.09813 21.6941 6.17299 21.8071 6.26795 21.902C6.36291 21.9969 6.47602 22.0717 6.60054 22.1219C6.72505 22.1722 6.85843 22.1968 6.9927 22.1945C7.12697 22.1921 7.25938 22.1627 7.38205 22.1081C7.50472 22.0535 7.61512 21.9748 7.70667 21.8766L15 14.5896L19.96 19.5453C20.1475 19.7324 20.4017 19.8375 20.6667 19.8375C20.9317 19.8375 21.1858 19.7324 21.3733 19.5453L29.7067 11.2192Z" fill="white"/>
</svg>
