<svg width="28" height="29" viewBox="0 0 28 29" fill="none" xmlns="http://www.w3.org/2000/svg">
<path d="M5.25 3.41855V26.1488H19.25V24.4003H7V5.16703H15.75V10.4125H21V12.1609H22.75V9.18819L22.4868 8.92694L17.2368 3.6815L16.9753 3.41855H5.25ZM17.5 6.39131L19.7747 8.66399H17.5V6.39131ZM8.75 12.1609V13.9094H19.25V12.1609H8.75ZM23.625 13.9094V15.6579C22.1375 15.9202 21 17.1441 21 18.7177C21 20.4662 22.3125 21.7776 24.0625 21.7776H24.9375C25.6375 21.7776 26.25 22.3896 26.25 23.0889C26.25 23.7883 25.6375 24.4003 24.9375 24.4003H21.875V26.1488H23.625V27.8973H25.375V26.1488C26.8625 25.8865 28 24.6626 28 23.0889C28 21.3405 26.6875 20.0291 24.9375 20.0291H24.0625C23.3625 20.0291 22.75 19.4171 22.75 18.7177C22.75 18.0184 23.3625 17.4064 24.0625 17.4064H27.125V15.6579H25.375V13.9094H23.625ZM8.75 16.5321V18.2806H14.875V16.5321H8.75ZM16.625 16.5321V18.2806H19.25V16.5321H16.625ZM8.75 20.0291V21.7776H14.875V20.0291H8.75ZM16.625 20.0291V21.7776H19.25V20.0291H16.625Z" fill="white"/>
</svg>
