<svg width="12" height="7" viewBox="0 0 12 7" fill="none" xmlns="http://www.w3.org/2000/svg">
<g clip-path="url(#clip0_1_81)">
<path d="M10.4701 6.52994C10.6123 6.66242 10.8003 6.73454 10.9946 6.73111C11.1889 6.72769 11.3743 6.64897 11.5117 6.51156C11.6491 6.37415 11.7278 6.18876 11.7313 5.99446C11.7347 5.80016 11.6626 5.61211 11.5301 5.46994L6.53008 0.469939C6.46043 0.400244 6.37773 0.344956 6.2867 0.307235C6.19568 0.269514 6.09811 0.250099 5.99958 0.250099C5.90105 0.250099 5.80348 0.269514 5.71246 0.307235C5.62143 0.344956 5.53873 0.400244 5.46908 0.469939L0.469081 5.46994C0.332527 5.61146 0.25702 5.80094 0.258821 5.99759C0.260621 6.19424 0.339587 6.38231 0.478709 6.5213C0.617831 6.66029 0.805979 6.73908 1.00263 6.7407C1.19928 6.74231 1.38869 6.66663 1.53008 6.52994L6.00008 2.05994L10.4701 6.52994Z" fill="black" stroke="black" stroke-width="0.3"/>
</g>
<defs>
<clipPath id="clip0_1_81">
<rect width="12" height="7" fill="white"/>
</clipPath>
</defs>
</svg>
