<svg width="12" height="7" viewBox="0 0 12 7" fill="none" xmlns="http://www.w3.org/2000/svg">
<g clip-path="url(#clip0_1_73)">
<path d="M1.52991 0.470061C1.38773 0.337581 1.19969 0.265458 1.00539 0.268886C0.811085 0.272314 0.625699 0.351026 0.488286 0.488439C0.350873 0.625852 0.272161 0.811238 0.268733 1.00554C0.265304 1.19984 0.337429 1.38789 0.469908 1.53006L5.46991 6.53006C5.53956 6.59976 5.62226 6.65504 5.71329 6.69276C5.80431 6.73049 5.90188 6.7499 6.00041 6.7499C6.09894 6.7499 6.19651 6.73049 6.28753 6.69276C6.37856 6.65504 6.46126 6.59976 6.53091 6.53006L11.5309 1.53006C11.6675 1.38854 11.743 1.19906 11.7412 1.00241C11.7394 0.805762 11.6604 0.617688 11.5213 0.478697C11.3822 0.339706 11.194 0.260918 10.9974 0.259303C10.8007 0.257687 10.6113 0.333374 10.4699 0.47006L5.99991 4.94006L1.52991 0.470061Z" fill="black" stroke="black" stroke-width="0.3"/>
</g>
<defs>
<clipPath id="clip0_1_73">
<rect width="12" height="7" fill="white"/>
</clipPath>
</defs>
</svg>
