<svg width="173" height="50" viewBox="0 0 173 50" fill="none" xmlns="http://www.w3.org/2000/svg">
<path d="M24.759 10.6V14.968H15.393V40H11.025V14.968H1.68V10.6H24.759ZM28.9751 40V10.6H47.2241V14.968H33.3431V22.066H44.5151V26.434H33.3431V35.632H47.2241V40H28.9751ZM65.2237 40.546C63.2357 40.546 61.3667 40.154 59.6167 39.37C57.8667 38.572 56.3267 37.48 54.9967 36.094C53.6807 34.694 52.6447 33.07 51.8887 31.222C51.1467 29.374 50.7757 27.4 50.7757 25.3C50.7757 23.2 51.1467 21.226 51.8887 19.378C52.6447 17.53 53.6807 15.913 54.9967 14.527C56.3267 13.127 57.8667 12.035 59.6167 11.251C61.3667 10.453 63.2357 10.054 65.2237 10.054C67.6037 10.054 69.7947 10.607 71.7967 11.713C73.7987 12.819 75.4577 14.289 76.7737 16.123L72.8887 18.202C71.9787 17.054 70.8517 16.137 69.5077 15.451C68.1637 14.765 66.7357 14.422 65.2237 14.422C63.8237 14.422 62.5147 14.709 61.2967 15.283C60.0787 15.857 59.0077 16.641 58.0837 17.635C57.1597 18.629 56.4387 19.784 55.9207 21.1C55.4027 22.416 55.1437 23.816 55.1437 25.3C55.1437 26.798 55.4027 28.205 55.9207 29.521C56.4387 30.823 57.1597 31.978 58.0837 32.986C59.0217 33.98 60.0997 34.764 61.3177 35.338C62.5357 35.898 63.8377 36.178 65.2237 36.178C66.7637 36.178 68.1987 35.835 69.5287 35.149C70.8727 34.449 71.9927 33.525 72.8887 32.377L76.7737 34.498C75.4577 36.332 73.7987 37.802 71.7967 38.908C69.7947 40 67.6037 40.546 65.2237 40.546ZM98.5208 10.6H102.889V40H98.5208V26.434H85.2278V40H80.8598V10.6H85.2278V22.066H98.5208V10.6Z" fill="black"/>
<path d="M118.904 32.5572V39.9852H117.224V32.8932C117.224 32.2372 117.064 31.6412 116.744 31.1052C116.424 30.5692 115.996 30.1412 115.46 29.8212C114.924 29.5012 114.328 29.3412 113.672 29.3412C113.024 29.3412 112.428 29.5012 111.884 29.8212C111.348 30.1412 110.92 30.5692 110.6 31.1052C110.28 31.6412 110.12 32.2372 110.12 32.8932V39.9852H108.44V27.9852H110.12V29.6412C110.544 29.0332 111.096 28.5492 111.776 28.1892C112.456 27.8292 113.196 27.6492 113.996 27.6492C114.9 27.6492 115.724 27.8692 116.468 28.3092C117.212 28.7492 117.804 29.3412 118.244 30.0852C118.684 30.8292 118.904 31.6532 118.904 32.5572ZM130.937 27.9852H132.617V39.9852H130.937L130.877 37.7532C130.485 38.5132 129.937 39.1292 129.233 39.6012C128.529 40.0652 127.689 40.2972 126.713 40.2972C125.833 40.2972 125.009 40.1332 124.241 39.8052C123.473 39.4692 122.797 39.0092 122.213 38.4252C121.629 37.8412 121.173 37.1652 120.845 36.3972C120.517 35.6292 120.353 34.8052 120.353 33.9252C120.353 33.0612 120.513 32.2492 120.833 31.4892C121.161 30.7292 121.609 30.0612 122.177 29.4852C122.753 28.9092 123.417 28.4612 124.169 28.1412C124.929 27.8132 125.741 27.6492 126.605 27.6492C127.605 27.6492 128.477 27.8892 129.221 28.3692C129.965 28.8412 130.557 29.4612 130.997 30.2292L130.937 27.9852ZM126.677 38.6652C127.533 38.6652 128.269 38.4572 128.885 38.0412C129.501 37.6172 129.973 37.0492 130.301 36.3372C130.637 35.6252 130.805 34.8412 130.805 33.9852C130.805 33.1052 130.637 32.3132 130.301 31.6092C129.965 30.8972 129.489 30.3332 128.873 29.9172C128.257 29.5012 127.525 29.2932 126.677 29.2932C125.829 29.2932 125.053 29.5052 124.349 29.9292C123.653 30.3452 123.097 30.9092 122.681 31.6212C122.273 32.3332 122.069 33.1212 122.069 33.9852C122.069 34.8572 122.281 35.6492 122.705 36.3612C123.129 37.0652 123.689 37.6252 124.385 38.0412C125.089 38.4572 125.853 38.6652 126.677 38.6652ZM141.15 29.6652H138.282L138.27 39.9852H136.59L136.602 29.6652H134.43V27.9852H136.602L136.59 24.2172H138.27L138.282 27.9852H141.15V29.6652ZM143.198 27.9852H144.878V39.9852H143.198V27.9852ZM144.05 25.8852C143.778 25.8852 143.546 25.7972 143.354 25.6212C143.17 25.4372 143.078 25.2092 143.078 24.9372C143.078 24.6652 143.17 24.4412 143.354 24.2652C143.546 24.0812 143.778 23.9892 144.05 23.9892C144.314 23.9892 144.538 24.0812 144.722 24.2652C144.914 24.4412 145.01 24.6652 145.01 24.9372C145.01 25.2092 144.918 25.4372 144.734 25.6212C144.55 25.7972 144.322 25.8852 144.05 25.8852ZM152.931 40.2972C151.827 40.2972 150.819 40.0132 149.907 39.4452C149.003 38.8772 148.279 38.1172 147.735 37.1652C147.199 36.2052 146.931 35.1452 146.931 33.9852C146.931 33.1052 147.087 32.2852 147.399 31.5252C147.711 30.7572 148.139 30.0852 148.683 29.5092C149.235 28.9252 149.875 28.4692 150.603 28.1412C151.331 27.8132 152.107 27.6492 152.931 27.6492C154.035 27.6492 155.039 27.9332 155.943 28.5012C156.855 29.0692 157.579 29.8332 158.115 30.7932C158.659 31.7532 158.931 32.8172 158.931 33.9852C158.931 34.8572 158.775 35.6732 158.463 36.4332C158.151 37.1932 157.719 37.8652 157.167 38.4492C156.623 39.0252 155.987 39.4772 155.259 39.8052C154.539 40.1332 153.763 40.2972 152.931 40.2972ZM152.931 38.6172C153.747 38.6172 154.479 38.4052 155.127 37.9812C155.783 37.5492 156.299 36.9812 156.675 36.2772C157.059 35.5732 157.251 34.8092 157.251 33.9852C157.251 33.1452 157.059 32.3732 156.675 31.6692C156.291 30.9572 155.771 30.3892 155.115 29.9652C154.467 29.5412 153.739 29.3292 152.931 29.3292C152.115 29.3292 151.379 29.5452 150.723 29.9772C150.075 30.4012 149.559 30.9652 149.175 31.6692C148.799 32.3732 148.611 33.1452 148.611 33.9852C148.611 34.8492 148.807 35.6332 149.199 36.3372C149.591 37.0332 150.115 37.5892 150.771 38.0052C151.427 38.4132 152.147 38.6172 152.931 38.6172ZM171.427 32.5572V39.9852H169.747V32.8932C169.747 32.2372 169.587 31.6412 169.267 31.1052C168.947 30.5692 168.519 30.1412 167.983 29.8212C167.447 29.5012 166.851 29.3412 166.195 29.3412C165.547 29.3412 164.951 29.5012 164.407 29.8212C163.871 30.1412 163.443 30.5692 163.123 31.1052C162.803 31.6412 162.643 32.2372 162.643 32.8932V39.9852H160.963V27.9852H162.643V29.6412C163.067 29.0332 163.619 28.5492 164.299 28.1892C164.979 27.8292 165.719 27.6492 166.519 27.6492C167.423 27.6492 168.247 27.8692 168.991 28.3092C169.735 28.7492 170.327 29.3412 170.767 30.0852C171.207 30.8292 171.427 31.6532 171.427 32.5572Z" fill="black"/>
</svg>
