<svg width="173" height="51" viewBox="0 0 173 51" fill="none" xmlns="http://www.w3.org/2000/svg">
<path d="M24.759 11.587V15.955H15.393V40.987H11.025V15.955H1.68V11.587H24.759ZM28.9751 40.987V11.587H47.2241V15.955H33.3431V23.053H44.5151V27.421H33.3431V36.619H47.2241V40.987H28.9751ZM65.2237 41.533C63.2357 41.533 61.3667 41.141 59.6167 40.357C57.8667 39.559 56.3267 38.467 54.9967 37.081C53.6807 35.681 52.6447 34.057 51.8887 32.209C51.1467 30.361 50.7757 28.387 50.7757 26.287C50.7757 24.187 51.1467 22.213 51.8887 20.365C52.6447 18.517 53.6807 16.9 54.9967 15.514C56.3267 14.114 57.8667 13.022 59.6167 12.238C61.3667 11.44 63.2357 11.041 65.2237 11.041C67.6037 11.041 69.7947 11.594 71.7967 12.7C73.7987 13.806 75.4577 15.276 76.7737 17.11L72.8887 19.189C71.9787 18.041 70.8517 17.124 69.5077 16.438C68.1637 15.752 66.7357 15.409 65.2237 15.409C63.8237 15.409 62.5147 15.696 61.2967 16.27C60.0787 16.844 59.0077 17.628 58.0837 18.622C57.1597 19.616 56.4387 20.771 55.9207 22.087C55.4027 23.403 55.1437 24.803 55.1437 26.287C55.1437 27.785 55.4027 29.192 55.9207 30.508C56.4387 31.81 57.1597 32.965 58.0837 33.973C59.0217 34.967 60.0997 35.751 61.3177 36.325C62.5357 36.885 63.8377 37.165 65.2237 37.165C66.7637 37.165 68.1987 36.822 69.5287 36.136C70.8727 35.436 71.9927 34.512 72.8887 33.364L76.7737 35.485C75.4577 37.319 73.7987 38.789 71.7967 39.895C69.7947 40.987 67.6037 41.533 65.2237 41.533ZM98.5208 11.587H102.889V40.987H98.5208V27.421H85.2278V40.987H80.8598V11.587H85.2278V23.053H98.5208V11.587Z" fill="white"/>
<path d="M118.904 33.5442V40.9722H117.224V33.8802C117.224 33.2242 117.064 32.6282 116.744 32.0922C116.424 31.5562 115.996 31.1282 115.46 30.8082C114.924 30.4882 114.328 30.3282 113.672 30.3282C113.024 30.3282 112.428 30.4882 111.884 30.8082C111.348 31.1282 110.92 31.5562 110.6 32.0922C110.28 32.6282 110.12 33.2242 110.12 33.8802V40.9722H108.44V28.9722H110.12V30.6282C110.544 30.0202 111.096 29.5362 111.776 29.1762C112.456 28.8162 113.196 28.6362 113.996 28.6362C114.9 28.6362 115.724 28.8562 116.468 29.2962C117.212 29.7362 117.804 30.3282 118.244 31.0722C118.684 31.8162 118.904 32.6402 118.904 33.5442ZM130.937 28.9722H132.617V40.9722H130.937L130.877 38.7402C130.485 39.5002 129.937 40.1162 129.233 40.5882C128.529 41.0522 127.689 41.2842 126.713 41.2842C125.833 41.2842 125.009 41.1202 124.241 40.7922C123.473 40.4562 122.797 39.9962 122.213 39.4122C121.629 38.8282 121.173 38.1522 120.845 37.3842C120.517 36.6162 120.353 35.7922 120.353 34.9122C120.353 34.0482 120.513 33.2362 120.833 32.4762C121.161 31.7162 121.609 31.0482 122.177 30.4722C122.753 29.8962 123.417 29.4482 124.169 29.1282C124.929 28.8002 125.741 28.6362 126.605 28.6362C127.605 28.6362 128.477 28.8762 129.221 29.3562C129.965 29.8282 130.557 30.4482 130.997 31.2162L130.937 28.9722ZM126.677 39.6522C127.533 39.6522 128.269 39.4442 128.885 39.0282C129.501 38.6042 129.973 38.0362 130.301 37.3242C130.637 36.6122 130.805 35.8282 130.805 34.9722C130.805 34.0922 130.637 33.3002 130.301 32.5962C129.965 31.8842 129.489 31.3202 128.873 30.9042C128.257 30.4882 127.525 30.2802 126.677 30.2802C125.829 30.2802 125.053 30.4922 124.349 30.9162C123.653 31.3322 123.097 31.8962 122.681 32.6082C122.273 33.3202 122.069 34.1082 122.069 34.9722C122.069 35.8442 122.281 36.6362 122.705 37.3482C123.129 38.0522 123.689 38.6122 124.385 39.0282C125.089 39.4442 125.853 39.6522 126.677 39.6522ZM141.15 30.6522H138.282L138.27 40.9722H136.59L136.602 30.6522H134.43V28.9722H136.602L136.59 25.2042H138.27L138.282 28.9722H141.15V30.6522ZM143.198 28.9722H144.878V40.9722H143.198V28.9722ZM144.05 26.8722C143.778 26.8722 143.546 26.7842 143.354 26.6082C143.17 26.4242 143.078 26.1962 143.078 25.9242C143.078 25.6522 143.17 25.4282 143.354 25.2522C143.546 25.0682 143.778 24.9762 144.05 24.9762C144.314 24.9762 144.538 25.0682 144.722 25.2522C144.914 25.4282 145.01 25.6522 145.01 25.9242C145.01 26.1962 144.918 26.4242 144.734 26.6082C144.55 26.7842 144.322 26.8722 144.05 26.8722ZM152.931 41.2842C151.827 41.2842 150.819 41.0002 149.907 40.4322C149.003 39.8642 148.279 39.1042 147.735 38.1522C147.199 37.1922 146.931 36.1322 146.931 34.9722C146.931 34.0922 147.087 33.2722 147.399 32.5122C147.711 31.7442 148.139 31.0722 148.683 30.4962C149.235 29.9122 149.875 29.4562 150.603 29.1282C151.331 28.8002 152.107 28.6362 152.931 28.6362C154.035 28.6362 155.039 28.9202 155.943 29.4882C156.855 30.0562 157.579 30.8202 158.115 31.7802C158.659 32.7402 158.931 33.8042 158.931 34.9722C158.931 35.8442 158.775 36.6602 158.463 37.4202C158.151 38.1802 157.719 38.8522 157.167 39.4362C156.623 40.0122 155.987 40.4642 155.259 40.7922C154.539 41.1202 153.763 41.2842 152.931 41.2842ZM152.931 39.6042C153.747 39.6042 154.479 39.3922 155.127 38.9682C155.783 38.5362 156.299 37.9682 156.675 37.2642C157.059 36.5602 157.251 35.7962 157.251 34.9722C157.251 34.1322 157.059 33.3602 156.675 32.6562C156.291 31.9442 155.771 31.3762 155.115 30.9522C154.467 30.5282 153.739 30.3162 152.931 30.3162C152.115 30.3162 151.379 30.5322 150.723 30.9642C150.075 31.3882 149.559 31.9522 149.175 32.6562C148.799 33.3602 148.611 34.1322 148.611 34.9722C148.611 35.8362 148.807 36.6202 149.199 37.3242C149.591 38.0202 150.115 38.5762 150.771 38.9922C151.427 39.4002 152.147 39.6042 152.931 39.6042ZM171.427 33.5442V40.9722H169.747V33.8802C169.747 33.2242 169.587 32.6282 169.267 32.0922C168.947 31.5562 168.519 31.1282 167.983 30.8082C167.447 30.4882 166.851 30.3282 166.195 30.3282C165.547 30.3282 164.951 30.4882 164.407 30.8082C163.871 31.1282 163.443 31.5562 163.123 32.0922C162.803 32.6282 162.643 33.2242 162.643 33.8802V40.9722H160.963V28.9722H162.643V30.6282C163.067 30.0202 163.619 29.5362 164.299 29.1762C164.979 28.8162 165.719 28.6362 166.519 28.6362C167.423 28.6362 168.247 28.8562 168.991 29.2962C169.735 29.7362 170.327 30.3282 170.767 31.0722C171.207 31.8162 171.427 32.6402 171.427 33.5442Z" fill="white"/>
</svg>
